<svg width="20" height="21" viewBox="0 0 20 21" fill="none" xmlns="http://www.w3.org/2000/svg">
<path d="M1.66669 10.5C1.66669 15.1024 5.39765 18.8333 10 18.8333C11.3807 18.8333 12.5 17.7141 12.5 16.3333V15.9167C12.5 15.5297 12.5 15.3361 12.5214 15.1737C12.6691 14.0519 13.5519 13.1691 14.6737 13.0214C14.8362 13 15.0297 13 15.4167 13H15.8334C17.2141 13 18.3334 11.8807 18.3334 10.5C18.3334 5.89763 14.6024 2.16667 10 2.16667C5.39765 2.16667 1.66669 5.89763 1.66669 10.5Z" stroke="#DDE1E1" stroke-width="2" stroke-linecap="round" stroke-linejoin="round"/>
<path d="M5.83335 11.3333C6.29359 11.3333 6.66669 10.9602 6.66669 10.5C6.66669 10.0398 6.29359 9.66667 5.83335 9.66667C5.37312 9.66667 5.00002 10.0398 5.00002 10.5C5.00002 10.9602 5.37312 11.3333 5.83335 11.3333Z" stroke="#DDE1E1" stroke-width="2" stroke-linecap="round" stroke-linejoin="round"/>
<path d="M13.3334 8.00001C13.7936 8.00001 14.1667 7.62691 14.1667 7.16667C14.1667 6.70643 13.7936 6.33334 13.3334 6.33334C12.8731 6.33334 12.5 6.70643 12.5 7.16667C12.5 7.62691 12.8731 8.00001 13.3334 8.00001Z" stroke="#DDE1E1" stroke-width="2" stroke-linecap="round" stroke-linejoin="round"/>
<path d="M8.33335 7.16667C8.79359 7.16667 9.16669 6.79358 9.16669 6.33334C9.16669 5.8731 8.79359 5.50001 8.33335 5.50001C7.87312 5.50001 7.50002 5.8731 7.50002 6.33334C7.50002 6.79358 7.87312 7.16667 8.33335 7.16667Z" stroke="#DDE1E1" stroke-width="2" stroke-linecap="round" stroke-linejoin="round"/>
</svg>
