<svg width="20" height="21" viewBox="0 0 20 21" fill="none" xmlns="http://www.w3.org/2000/svg">
<path d="M9.99998 13C7.35825 13 5.00898 14.2755 3.51331 16.255C3.1914 16.681 3.03044 16.894 3.03571 17.1819C3.03978 17.4043 3.17944 17.6849 3.35445 17.8222C3.58097 18 3.89487 18 4.52267 18H15.4773C16.1051 18 16.419 18 16.6455 17.8222C16.8205 17.6849 16.9602 17.4043 16.9642 17.1819C16.9695 16.894 16.8086 16.681 16.4866 16.255C14.991 14.2755 12.6417 13 9.99998 13Z" stroke="#DDE1E1" strokeWidth="2" stroke-linecap="round" stroke-linejoin="round"/>
<path d="M9.99998 10.5C12.071 10.5 13.75 8.82107 13.75 6.75C13.75 4.67893 12.071 3 9.99998 3C7.92891 3 6.24998 4.67893 6.24998 6.75C6.24998 8.82107 7.92891 10.5 9.99998 10.5Z" stroke="#DDE1E1" strokeWidth="2" stroke-linecap="round" stroke-linejoin="round"/>
</svg>
